# xmcd
#
# Track frame offsets:
#	150
#	14911
#	30455
#	46155
#	61500
#	73944
#	88903
#	109946
#	124726
#	142017
#	158174
#	180721
#
# Disc length: 2646 seconds
#
# Revision: 0
# Processed by: cddbd v1.5.2PL0 Copyright (c) Steve Scherf et al.
# Submitted via: dBpowerAMP V4.0
#
DISCID=a80a540c
DTITLE=Savannah Jack - Savannah Jack
DYEAR=2010
DGENRE=Country
TTITLE0=I Know
TTITLE1=The Camera Don't Lie
TTITLE2=She Didn't Even Know What She Said
TTITLE3=Something's Wrong In Vegas
TTITLE4=You Don't Wanna Miss This
TTITLE5=The Apple (with Vince Gill)
TTITLE6=I Can't Be Your Fool
TTITLE7=Everything That Love's Supposed To Do
TTITLE8=Somewhere Between The Two
TTITLE9=Don't Threaten Me With Pleasure
TTITLE10=You'll Wake Up One Day
TTITLE11=I Feel Your Pain
EXTD=
EXTT0=
EXTT1=
EXTT2=
EXTT3=
EXTT4=
EXTT5=
EXTT6=
EXTT7=
EXTT8=
EXTT9=
EXTT10=
EXTT11=
PLAYORDER=
